<svg xmlns="http://www.w3.org/2000/svg" viewBox="449 68 511 511">
<defs><pattern id="hh" width="72" height="41.6" patternUnits="userSpaceOnUse">
<g fill="none" stroke="#2E4066" stroke-width="2.6">
<path d="M12 0 L24 6.9 L24 20.8 L12 27.7 L0 20.8 L0 6.9 Z" transform="translate(12 6.9)"/>
<path d="M12 0 L24 6.9 L24 20.8 L12 27.7 L0 20.8 L0 6.9 Z" transform="translate(48 27.7)"/>
<path d="M12 0 L24 6.9 L24 20.8 L12 27.7 L0 20.8 L0 6.9 Z" transform="translate(-24 27.7)"/>
</g></pattern><clipPath id="hc"><g transform="translate(0.000000,768.000000) scale(0.100000,-0.100000)"><path d="M6923 6935 c-85 -19 -85 -18 -783 -427 -344 -200 -731 -427 -860
-502 -299 -175 -364 -237 -422 -404 l-23 -67 0 -1085 0 -1085 27 -68 c15 -37
44 -92 63 -122 75 -112 82 -117 805 -540 425 -249 592 -347 815 -478 339 -200
408 -224 572 -199 116 18 108 14 1243 682 118 69 311 182 429 251 310 180 402
275 446 460 21 91 22 2125 1 2206 -36 135 -113 249 -214 317 -37 24 -229 138
-427 254 -198 115 -551 321 -785 457 -234 137 -455 266 -491 287 -120 69 -262
92 -396 63z"/></g></clipPath></defs>
<g transform="translate(0.000000,768.000000) scale(0.100000,-0.100000)" fill="#132949"><path d="M6923 6935 c-85 -19 -85 -18 -783 -427 -344 -200 -731 -427 -860
-502 -299 -175 -364 -237 -422 -404 l-23 -67 0 -1085 0 -1085 27 -68 c15 -37
44 -92 63 -122 75 -112 82 -117 805 -540 425 -249 592 -347 815 -478 339 -200
408 -224 572 -199 116 18 108 14 1243 682 118 69 311 182 429 251 310 180 402
275 446 460 21 91 22 2125 1 2206 -36 135 -113 249 -214 317 -37 24 -229 138
-427 254 -198 115 -551 321 -785 457 -234 137 -455 266 -491 287 -120 69 -262
92 -396 63z"/></g>
<g clip-path="url(#hc)" opacity="0.35"><rect x="440" y="20" width="520" height="580" fill="url(#hh)"/></g>
<g transform="translate(0.000000,768.000000) scale(0.100000,-0.100000)" fill="#D22A2D"><path d="M7645 5583 c-262 -41 -466 -211 -545 -453 -44 -135 -67 -398 -37
-417 17 -11 347 -14 367 -3 14 7 18 30 23 107 10 180 67 296 170 351 78 41
249 41 319 0 60 -36 112 -98 140 -167 23 -56 23 -58 23 -601 l0 -545 -24 -60
c-54 -136 -167 -202 -326 -193 -165 11 -266 109 -294 288 -6 36 -11 205 -11
375 0 229 -3 314 -12 323 -9 9 -84 12 -275 12 l-263 0 0 470 c0 454 -1 470
-19 480 -25 13 -368 14 -376 0 -3 -5 -5 -214 -5 -463 0 -250 -2 -462 -6 -471
-5 -14 -36 -16 -265 -16 l-259 0 0 470 c0 454 -1 470 -19 480 -11 6 -89 10
-181 10 -92 0 -170 -4 -181 -10 -30 -17 -30 -2283 0 -2300 25 -13 321 -13 355
0 l26 10 0 469 c0 439 1 470 18 475 13 4 1006 1 1048 -3 8 -1 13 -62 17 -188
6 -199 17 -265 64 -382 106 -268 345 -420 658 -421 432 0 689 242 734 695 14
139 14 876 0 1002 -24 220 -84 360 -209 483 -143 143 -262 190 -490 195 -74 2
-148 1 -165 -2z"/><path d="M6504 4089 c-4 -7 -6 -194 -5 -418 2 -370 3 -407 19 -419 18 -15 347
-12 371 2 16 10 15 818 -1 834 -16 16 -374 17 -384 1z"/><path d="M7834 1576 c-34 -8 -85 -26 -115 -41 -53 -27 -163 -131 -154 -146 3
-4 0 -11 -5 -14 -52 -32 -58 -283 -11 -390 29 -66 127 -158 196 -184 32 -12
60 -19 63 -16 3 2 12 -1 20 -8 29 -24 306 -23 397 2 200 55 286 166 293 378 5
146 -16 218 -90 298 -28 31 -53 53 -56 50 -3 -3 -15 3 -26 14 -64 59 -358 92
-512 57z m316 -167 c19 -4 38 -7 42 -6 14 4 81 -70 100 -111 40 -88 23 -228
-35 -290 -96 -103 -380 -104 -473 0 -44 48 -58 89 -58 173 0 110 34 174 117
216 69 36 207 44 307 18z"/><path d="M4242 1568 c-9 -9 -12 -109 -12 -388 0 -442 -9 -410 111 -410 45 0
80 5 87 12 8 8 12 59 12 165 l0 153 250 0 250 0 0 -155 c0 -142 1 -155 19
-165 27 -14 164 -13 179 2 17 17 17 769 0 786 -16 16 -170 16 -186 0 -8 -8
-12 -57 -12 -155 l0 -143 -250 0 -250 0 0 143 c0 98 -4 147 -12 155 -7 7 -43
12 -93 12 -50 0 -86 -5 -93 -12z"/><path d="M5681 1559 c-18 -11 -31 -23 -27 -26 3 -3 -6 -19 -19 -35 -14 -16
-23 -33 -20 -38 3 -4 -2 -11 -11 -14 -8 -3 -13 -10 -9 -15 3 -5 1 -12 -5 -16
-12 -8 -94 -154 -97 -174 -1 -8 -11 -26 -22 -40 -21 -27 -119 -202 -119 -211
1 -10 -52 -109 -62 -115 -6 -3 -19 -23 -30 -44 -27 -53 -15 -61 95 -61 105 0
109 3 160 100 15 30 30 57 32 59 2 3 111 4 242 2 153 -2 241 1 245 8 14 22 62
-21 102 -91 l42 -73 103 0 c117 0 131 10 89 67 -12 17 -23 37 -24 45 -1 8 -7
18 -13 21 -6 4 -13 13 -15 21 -5 21 -134 253 -155 278 -10 12 -16 24 -13 27 3
2 -4 14 -14 25 -11 12 -21 28 -22 35 -3 19 -82 153 -94 161 -6 4 -8 10 -5 14
2 5 -6 20 -19 34 -13 14 -22 28 -19 31 3 3 -10 14 -28 25 -49 30 -219 30 -268
0z m149 -159 c0 -5 9 -19 21 -31 11 -11 22 -28 24 -37 4 -23 82 -162 102 -184
9 -10 12 -18 8 -18 -5 0 -4 -5 3 -12 25 -25 7 -28 -168 -28 -99 0 -180 3 -180
8 0 4 30 61 66 127 36 66 68 128 70 139 5 28 54 61 54 36z"/><path d="M6484 1568 c-5 -7 31 -48 94 -107 55 -53 120 -118 143 -146 23 -27
45 -50 48 -50 14 -1 34 -19 52 -48 l19 -32 -123 -126 c-290 -300 -285 -289
-131 -289 l93 0 58 49 c53 44 126 120 194 200 35 41 52 39 97 -11 20 -22 78
-84 128 -136 l92 -96 106 -4 c118 -4 145 0 127 22 -6 7 -9 15 -6 18 3 3 -32
40 -77 84 -46 43 -110 108 -143 144 -32 36 -62 64 -66 63 -3 -1 -17 9 -29 22
-13 14 -20 25 -15 25 5 0 -2 11 -14 24 l-23 25 181 177 c212 207 211 204 56
204 -88 0 -106 -3 -126 -20 -13 -10 -20 -19 -15 -20 5 0 1 -9 -9 -20 -10 -11
-21 -17 -25 -15 -4 3 -13 -2 -20 -10 -7 -8 -11 -15 -8 -15 5 0 -122 -131 -144
-148 -19 -15 -78 17 -78 42 0 7 -45 56 -99 109 l-100 97 -115 0 c-77 0 -117
-4 -122 -12z"/><path d="M8814 1562 c-81 -28 -131 -70 -138 -114 -1 -7 -5 -19 -9 -25 -5 -7
-6 -17 -2 -22 3 -5 1 -12 -5 -16 -15 -9 -14 -587 2 -603 15 -15 152 -16 179
-2 17 10 19 23 19 155 l0 145 208 1 c114 0 252 0 308 -1 122 -1 126 2 122 92
l-3 63 -317 3 -318 2 0 51 c0 115 13 119 350 119 168 0 279 4 291 10 16 9 19
22 19 76 0 60 -2 65 -26 74 -49 19 -622 12 -680 -8z"/><path d="M9652 1568 c-9 -9 -12 -110 -12 -393 0 -283 3 -384 12 -393 7 -7 43
-12 93 -12 50 0 86 5 93 12 9 9 12 110 12 395 0 368 -1 383 -19 393 -27 14
-164 13 -179 -2z"/></g>
</svg>